<svg width="53" height="53" viewBox="0 0 53 53" fill="none" xmlns="http://www.w3.org/2000/svg">
<g clip-path="url(#clip0)">
<path d="M11.9407 42.1173C6.32574 37.6431 3.10547 30.9622 3.10547 23.7878C3.10547 16.6135 6.32553 9.93271 11.9403 5.45856C12.611 4.92411 12.7213 3.94713 12.1869 3.27656C11.6525 2.60588 10.6756 2.49543 10.0049 3.02988C3.64665 8.09666 0 15.6626 0 23.7878C0 31.9132 3.64675 39.4793 10.0054 44.546C10.6757 45.0802 11.6528 44.9702 12.1874 44.2993C12.7218 43.6286 12.6114 42.6517 11.9407 42.1173Z" fill="white"/>
<path d="M42.9952 3.02983C42.3245 2.49549 41.3477 2.60583 40.8132 3.27651C40.2788 3.94719 40.3891 4.92407 41.0598 5.45852C46.6744 9.93278 49.8944 16.6135 49.8944 23.7876C49.8944 30.9619 46.6744 37.6426 41.0597 42.1167C40.389 42.6512 40.2787 43.6281 40.8131 44.2987C41.3478 44.9697 42.3249 45.0794 42.9951 44.5454C49.3533 39.4786 52.9999 31.9127 52.9999 23.7876C52.9999 15.6626 49.3533 8.09661 42.9952 3.02983Z" fill="white"/>
<path d="M17.1148 35.636C13.4745 32.7406 11.3867 28.422 11.3867 23.7878C11.3867 19.1535 13.4745 14.835 17.1149 11.9394C17.7859 11.4056 17.8973 10.4288 17.3634 9.75764C16.8295 9.08644 15.8527 8.97516 15.1816 9.50899C10.7964 12.9972 8.28125 18.2015 8.28125 23.7878C8.28125 29.3741 10.7964 34.5784 15.1815 38.0665C15.8531 38.6005 16.8297 38.4887 17.3633 37.8178C17.8971 37.1467 17.7858 36.1699 17.1148 35.636Z" fill="#FC3F3F"/>
<path d="M37.8184 9.50895C37.1472 8.97522 36.1705 9.0864 35.6366 9.75759C35.1028 10.4287 35.214 11.4056 35.8851 11.9394C39.5254 14.8348 41.6132 19.1533 41.6132 23.7876C41.6132 28.4219 39.5254 32.7404 35.885 35.6359C35.2139 36.1697 35.1026 37.1465 35.6365 37.8177C36.1706 38.4892 37.1476 38.5998 37.8183 38.0663C42.2035 34.5782 44.7186 29.3738 44.7186 23.7876C44.7186 18.2014 42.2035 12.997 37.8184 9.50895Z" fill="#FC3F3F"/>
<path d="M26.5 16.0449C22.2191 16.0449 18.7363 19.5277 18.7363 23.8086C18.7363 27.5578 21.4079 30.6947 24.9473 31.4161V48.7559C24.9473 49.6134 25.6425 50.3086 26.5 50.3086C27.3575 50.3086 28.0527 49.6134 28.0527 48.7559V31.4161C31.5921 30.6948 34.2637 27.5579 34.2637 23.8086C34.2637 19.5277 30.7809 16.0449 26.5 16.0449ZM26.5 28.4668C23.9315 28.4668 21.8418 26.3771 21.8418 23.8086C21.8418 21.2401 23.9315 19.1504 26.5 19.1504C29.0685 19.1504 31.1582 21.2401 31.1582 23.8086C31.1582 26.3771 29.0685 28.4668 26.5 28.4668Z" fill="white"/>
</g>
<defs>
<clipPath id="clip0">
<rect width="53" height="53" fill="white"/>
</clipPath>
</defs>
</svg>
