<svg width="177" height="177" viewBox="0 0 177 177" fill="none" xmlns="http://www.w3.org/2000/svg">
<g clip-path="url(#clip0)">
<path d="M64.6646 36.0612L53.5108 24.9432C64.7547 21.2904 76.64 19.3895 88.8656 19.3895C120.737 19.3895 150.323 32.2569 172.169 55.623L176.871 60.6512L166.783 70.0225L162.082 64.9944C142.871 44.45 116.87 33.1363 88.8656 33.1363C80.5816 33.1363 72.4738 34.1336 64.6646 36.0612ZM86.5875 57.9126L101.586 72.8644C115.084 75.5078 127.736 82.3282 138.103 92.7197L142.965 97.5938L152.742 87.9007L147.881 83.0266C131.7 66.8094 110.741 57.8777 88.8656 57.8777C88.1044 57.8777 87.346 57.8911 86.5875 57.9126ZM88.5227 136.917C82.4294 136.917 77.4899 141.841 77.4899 147.913C77.4899 153.987 82.4294 158.91 88.5227 158.91C94.6146 158.91 99.554 153.987 99.554 147.913C99.554 141.841 94.6146 136.917 88.5227 136.917ZM162.12 159.316L9.31854 5.86328L2.5 9.5L28 37C20.1692 42.0644 12.1408 48.5894 5.5647 55.623L0.863281 60.6498L10.952 70.0225L15.652 64.9944C22.1407 58.056 29.408 52.1806 37.2616 47.4299L55.173 65.2839C45.9557 69.5091 37.384 75.4757 29.8504 83.028L24.989 87.902L34.7684 97.5938L39.6298 92.7197C47.275 85.0548 56.1641 79.3336 65.7202 75.7974L86.4086 96.4181C75.5575 96.9771 63.976 102.226 55.7634 110.405L50.8844 115.261L60.6302 124.987L65.5091 120.13C71.6212 114.044 80.5722 110.113 88.3169 110.113H88.3209H88.801H88.8051C94.1157 110.113 99.9951 111.962 105.138 115.088L157.542 163.309L159.831 160.457L162.12 159.316Z" fill="white"/>
</g>
<rect width="12.7273" height="222.238" transform="matrix(0.724992 -0.688757 0.68999 0.723819 0.871094 8.94238)" fill="#FC3F3F"/>
<defs>
<clipPath id="clip0">
<rect x="0.734375" y="1.2998" width="176.265" height="175.701" fill="white"/>
</clipPath>
</defs>
</svg>
